<?xml version="1.0" encoding="utf-8"?>
<!-- Generator: Adobe Illustrator 17.0.0, SVG Export Plug-In . SVG Version: 6.00 Build 0)  -->
<!DOCTYPE svg PUBLIC "-//W3C//DTD SVG 1.1//EN" "http://www.w3.org/Graphics/SVG/1.1/DTD/svg11.dtd">
<svg version="1.1" xmlns="http://www.w3.org/2000/svg" xmlns:xlink="http://www.w3.org/1999/xlink" x="0px" y="0px" width="500px"
	 height="500px" viewBox="0 0 500 500" enable-background="new 0 0 500 500" xml:space="preserve">
<g id="Layer_1">
	<g>
		<path fill="#FFFFFF" d="M155.45,37.161c23.638-16.173,53.495-23.638,88.33-23.638c46.031,0,83.353,11.197,114.455,33.59
			c29.858,22.393,44.787,55.984,44.787,99.526c0,27.37-6.22,49.763-19.905,68.424c-7.464,11.197-22.393,24.882-43.543,42.299
			l-21.149,17.417c-11.197,8.709-19.905,19.905-23.638,32.346c-2.488,7.464-3.732,19.905-3.732,36.078h-82.109
			c1.244-34.834,4.976-59.716,9.953-72.157c4.976-13.685,18.661-28.614,41.055-46.031l22.393-17.417
			c7.464-6.22,13.685-11.197,17.417-18.661c7.464-11.197,12.441-23.638,12.441-37.322c0-16.173-4.976-29.858-13.685-43.543
			c-8.709-12.441-24.882-19.905-49.763-19.905c-23.638,0-39.811,7.464-49.763,23.638s-14.929,32.346-14.929,49.763H96.978
			C98.222,103.097,118.128,62.043,155.45,37.161"/>
		<rect x="207.701" y="405.409" fill="#FFFFFF" width="82.109" height="82.109"/>
	</g>
	<g>
		<path fill="none" stroke="#231F20" stroke-width="23.6505" stroke-miterlimit="10" d="M155.45,37.161
			c23.638-16.173,53.495-23.638,88.33-23.638c46.031,0,83.353,11.197,114.455,33.59c29.858,22.393,44.787,55.984,44.787,99.526
			c0,27.37-6.22,49.763-19.905,68.424c-7.464,11.197-22.393,24.882-43.543,42.299l-21.149,17.417
			c-11.197,8.709-19.905,19.905-23.638,32.346c-2.488,7.464-3.732,19.905-3.732,36.078h-82.109
			c1.244-34.834,4.976-59.716,9.953-72.157c4.976-13.685,18.661-28.614,41.055-46.031l22.393-17.417
			c7.464-6.22,13.685-11.197,17.417-18.661c7.464-11.197,12.441-23.638,12.441-37.322c0-16.173-4.976-29.858-13.685-43.543
			c-8.709-12.441-24.882-19.905-49.763-19.905c-23.638,0-39.811,7.464-49.763,23.638s-14.929,32.346-14.929,49.763H96.978
			C98.222,103.097,118.128,62.043,155.45,37.161"/>
		
			<rect x="207.701" y="405.409" fill="none" stroke="#231F20" stroke-width="23.6505" stroke-miterlimit="10" width="82.109" height="82.109"/>
	</g>
</g>
<g id="Layer_2">
</g>
</svg>
